<?xml version="1.0" encoding="utf-8"?>
<!-- Generator: Adobe Illustrator 27.1.1, SVG Export Plug-In . SVG Version: 6.00 Build 0)  -->
<svg version="1.1" id="Layer_1" xmlns="http://www.w3.org/2000/svg" xmlns:xlink="http://www.w3.org/1999/xlink" x="0px" y="0px"
	 viewBox="0 0 595.28 841.89" style="enable-background:new 0 0 595.28 841.89;" xml:space="preserve">
<style type="text/css">
	.st0{fill:none;stroke:#020203;stroke-miterlimit:10;}
	.st1{fill:none;stroke:#EC6527;stroke-miterlimit:10;}
</style>
<g>
	<g>
		<path class="st0" d="M288.65,458.71c2.82-0.2,5.24-1.08,7.01,2.41c1.73,3.41,6.92,3.47,8.78,0.12c1.89-3.4,4.25-2.99,7.07-2.43
			c0.31,6.24-5.5,10.85-11.16,11.13C294.31,470.24,288.6,464.84,288.65,458.71z"/>
		<path class="st0" d="M320.45,458.7c3.08-0.43,5.49-0.65,7.33,2.66c1.78,3.19,6.83,3.13,8.55-0.12c1.75-3.29,4.11-2.92,6.81-2.6
			c0.84,5.36-3.88,10.49-10.25,11.24C326.79,470.61,321.09,465.65,320.45,458.7z"/>
		<path class="st0" d="M193.01,458.76c2.62-0.26,5.08-1.24,6.87,2.26c1.81,3.53,7.12,3.55,9,0.04c1.82-3.41,4.18-2.68,6.84-2.23
			c0.18,5.73-4.86,10.82-10.84,11.12C198.66,470.26,193.17,465.17,193.01,458.76z"/>
		<rect x="309.51" y="442.35" class="st1" width="11" height="10.43"/>
		<path class="st0" d="M376.97,458.71c2.81-0.27,5.21-0.99,6.95,2.47c1.69,3.36,6.96,3.31,8.76-0.07c1.78-3.35,4.18-2.73,6.85-2.4
			c0.39,5.74-4.66,11.09-10.91,11.2C382.14,470.04,376.45,464.59,376.97,458.71z"/>
		<path class="st1" d="M361.22,374.56c6.88,0,13.52-0.57,20.09,0.19c4.87,0.56,8.35,5.77,11.1,11.81
			c4.01,8.79,6.34,18.75,7.58,29.16c1.31,11,1.98,22.18,2.97,33.27c0.24,2.74-0.4,3.69-2.21,3.69c-26.04-0.06-52.09-0.05-78.13-0.04
			c-1.12,0-2.11,0.12-2.1-2.45c0.07-21.46,0.28-42.91,2.69-64.13c0.46-4.08,1.4-8.05,2.16-12.04c0.41-2.16,1.33-3.15,2.88-3
			c1.78,0.18,3.57,0.03,5.35,0.04c2.86,0.01,2.9,0.05,2.9,4.36c0.01,15.19,0.01,30.38,0.01,45.57c0,6.16-0.03,12.33,0,18.49
			c0.02,4,0.59,4.87,3.15,4.88c5.85,0.03,11.7,0.01,17.55,0.01c3.39,0,4.01-0.93,4.01-6.09c0-20.03,0-40.07,0-60.1
			C361.22,377.09,361.22,376,361.22,374.56z"/>
		<rect x="193.01" y="370.89" class="st1" width="116.37" height="81.99"/>
	</g>
</g>
</svg>
